<svg width="100%" height="15" viewBox="0 0 15 15" fill="none" xmlns="http://www.w3.org/2000/svg">
<path d="M0.951738 0.964579C0.154556 1.76567 0 2.87738 0 4.20162V4.28337H1.30966V4.15258C1.30966 3.29427 1.4154 2.41144 1.90348 1.92097C2.39968 1.42234 3.28633 1.31608 4.14046 1.31608H4.28688V0H4.18927C2.87148 0 1.75706 0.155313 0.951738 0.964579ZM5.40131 1.31608H9.59867V0H5.40131V1.31608ZM14.0482 0.964579C13.2429 0.155313 12.1285 0 10.7863 0H10.705V1.31608H10.884C11.7218 1.31608 12.6004 1.43052 13.0884 1.92097C13.5846 2.41962 13.6903 3.28609 13.6903 4.12805V4.28337H15V4.22615C15 2.86921 14.8455 1.75749 14.0482 0.964579ZM13.6903 9.59673H15V5.40326H13.6903V9.59673ZM14.0482 14.0354C14.8455 13.2343 15 12.1307 15 10.7738V10.7166H13.6903V10.8637C13.6903 11.7139 13.5846 12.5803 13.0884 13.079C12.6004 13.5695 11.7218 13.6839 10.884 13.6839H10.705V15H10.7863C12.1285 15 13.2429 14.8446 14.0482 14.0354ZM5.40131 15H9.59867V13.6839H5.40131V15ZM0.951738 14.0354C1.75706 14.8446 2.87148 15 4.20554 15H4.28688V13.6839H4.11606C3.2782 13.6839 2.39968 13.5695 1.90348 13.079C1.4154 12.5803 1.30966 11.7139 1.30966 10.8637V10.7166H0V10.7738C0 12.1307 0.154556 13.2343 0.951738 14.0354ZM0 9.59673H1.30966V5.40326H0V9.59673Z" fill="currentColor"/>
</svg>
