<svg width="100%" height="15" viewBox="0 0 16 15" fill="none" xmlns="http://www.w3.org/2000/svg">
<path d="M0.5 4.29388H1.81179V2.59099C1.81179 1.74363 2.25992 1.31179 3.0747 1.31179H4.76128V0H3.0584C1.35552 0 0.5 0.839219 0.5 2.52581V4.29388ZM5.87752 1.31179H10.1225V0H5.87752V1.31179ZM14.1882 4.29388H15.5V2.52581C15.5 0.847371 14.6445 0 12.9416 0H11.2388V1.31179H12.9254C13.732 1.31179 14.1882 1.74363 14.1882 2.59099V4.29388ZM14.1882 9.58995H15.5V5.41012H14.1882V9.58995ZM11.2388 15H12.9416C14.6445 15 15.5 14.1527 15.5 12.4742V10.7062H14.1882V12.4091C14.1882 13.2564 13.732 13.6883 12.9254 13.6883H11.2388V15ZM5.87752 15H10.1225V13.6883H5.87752V15ZM3.0584 15H4.76128V13.6883H3.0747C2.25992 13.6883 1.81179 13.2564 1.81179 12.4091V10.7062H0.5V12.4742C0.5 14.1608 1.35552 15 3.0584 15ZM0.5 9.58995H1.81179V5.41012H0.5V9.58995Z" fill="currentColor"/>
</svg>
