<svg width="100%" height="15" viewBox="0 0 20 15" fill="none" xmlns="http://www.w3.org/2000/svg">
<path d="M2.38576 12.4575H17.2808C18.4808 12.4575 19.2083 11.7226 19.2083 10.53V1.92751C19.2083 0.735002 18.4808 0 17.2808 0H2.38576C1.19325 0 0.458252 0.735002 0.458252 1.92751V10.53C0.458252 11.7226 1.19325 12.4575 2.38576 12.4575ZM2.40825 11.25C1.94325 11.25 1.66576 10.9725 1.66576 10.515V1.94251C1.66576 1.485 1.94325 1.20751 2.40825 1.20751H17.2583C17.7233 1.20751 18.0008 1.485 18.0008 1.94251V10.515C18.0008 10.9725 17.7233 11.25 17.2583 11.25H2.40825ZM6.06076 15H13.6058C13.9358 15 14.2133 14.73 14.2133 14.3925C14.2133 14.0551 13.9358 13.785 13.6058 13.785H6.06076C5.73076 13.785 5.45327 14.0551 5.45327 14.3925C5.45327 14.73 5.73076 15 6.06076 15Z" fill="currentColor"/>
</svg>
