<svg width="100%" height="15" viewBox="0 0 23 15" fill="none" xmlns="http://www.w3.org/2000/svg">
<path d="M3.2149 15H13.1348C14.9913 15 16.0997 13.9286 16.0997 12.0721V2.91872C16.0997 1.07142 15.0837 0 13.2272 0H3.2149C1.4415 0 0.25 1.07142 0.25 2.91872V12.0721C0.25 13.9286 1.35838 15 3.2149 15ZM17.3558 10.2247L20.7179 13.1342C21.032 13.4113 21.4015 13.5868 21.7339 13.5868C22.4544 13.5868 22.9254 13.0603 22.9254 12.3029V2.69704C22.9254 1.93965 22.4544 1.41317 21.7339 1.41317C21.4015 1.41317 21.032 1.58867 20.7179 1.86576L17.3558 4.766V10.2247Z" fill="currentColor"/>
</svg>
